<?xml version="1.0" standalone="no"?>

<svg viewBox="0 0 721 100" style="background-color:#ffffff00" version="1.1" xmlns="http://www.w3.org/2000/svg" xmlns:xlink="http://www.w3.org/1999/xlink" xml:space="preserve" x="0px" y="0px" width="100%" height="100%">
	<g id="Planet%20Ministries">
		<g id="Ministries">
			<path d="M 388.9 84.9 L 400.9 84.9 L 397 18 L 381 18 L 371.7 44.9 C 369.1 52.7 366.8 61 365 68.2 L 364.7 68.2 C 363 60.8 360.9 52.8 358.6 45 L 349.8 18 L 333.6 18 L 329.1 84.9 L 340.6 84.9 L 342.1 58.1 C 342.6 49 343 38.4 343.3 29.6 L 343.5 29.6 C 345.3 38 347.7 47.1 350.3 55.6 L 359.3 84.1 L 368.6 84.1 L 378.5 55.2 C 381.5 46.8 384.3 37.8 386.5 29.6 L 386.8 29.6 C 386.7 38.7 387.2 49.1 387.6 57.7 L 388.9 84.9 L 388.9 84.9 Z" fill="#2c374b"/>
			<path d="M 423.9 84.9 L 423.9 37.1 L 412.1 37.1 L 412.1 84.9 L 423.9 84.9 L 423.9 84.9 ZM 418 16.1 C 413.9 16.1 411.1 18.9 411.1 22.5 C 411.1 26 413.8 28.9 417.9 28.9 C 422.2 28.9 424.9 26 424.9 22.5 C 424.8 18.9 422.2 16.1 418 16.1 L 418 16.1 Z" fill="#2c374b"/>
			<path d="M 435.1 84.9 L 446.9 84.9 L 446.9 56.8 C 446.9 55.4 447.1 54 447.6 53 C 448.9 49.4 452.4 45.9 457.5 45.9 C 464.4 45.9 467.1 51.1 467.1 58 L 467.1 84.9 L 478.9 84.9 L 478.9 56.6 C 478.9 41.5 470.4 36.1 461.9 36.1 C 453.5 36.1 448.1 40.6 445.9 44.4 L 445.6 44.4 L 445 37.1 L 434.7 37.1 C 434.9 41.2 435.1 45.8 435.1 51.3 L 435.1 84.9 L 435.1 84.9 Z" fill="#2c374b"/>
			<path d="M 501.9 84.9 L 501.9 37.1 L 490.1 37.1 L 490.1 84.9 L 501.9 84.9 L 501.9 84.9 ZM 496 16.1 C 491.9 16.1 489.1 18.9 489.1 22.5 C 489.1 26 491.8 28.9 495.9 28.9 C 500.2 28.9 502.9 26 502.9 22.5 C 502.8 18.9 500.2 16.1 496 16.1 L 496 16.1 Z" fill="#2c374b"/>
			<path d="M 509.8 82.6 C 513.4 84.6 518.7 86 524.5 86 C 537.1 86 543.9 79.6 543.9 70.9 C 543.8 63.8 539.8 59.4 531 56.4 C 525.1 54.2 522.9 52.8 522.9 49.8 C 522.9 46.8 525.2 44.7 529.4 44.7 C 533.6 44.7 537.6 46.3 539.5 47.4 L 542 38.9 C 539.1 37.3 534.5 36 529.2 36 C 518.2 36 511.1 42.6 511.1 51 C 511.1 56.7 515 61.8 524.4 64.9 C 530.2 67 532.1 68.6 532.1 71.8 C 532.1 75 529.8 77.2 524.6 77.2 C 520.3 77.2 515 75.3 512.3 73.7 L 509.8 82.6 L 509.8 82.6 Z" fill="#2c374b"/>
			<path d="M 554.1 28.1 L 554.1 37.2 L 547.2 37.2 L 547.2 46 L 554.1 46 L 554.1 68.5 C 554.1 74.8 555.2 79.2 557.9 82 C 560.1 84.4 563.8 85.9 568.3 85.9 C 572.1 85.9 575.4 85.3 577.2 84.6 L 577 75.5 C 575.6 75.9 574.4 76 572.2 76 C 567.5 76 565.9 73.1 565.9 67.2 L 565.9 46 L 577.6 46 L 577.6 37.2 L 565.9 37.2 L 565.9 24.7 L 554.1 28.1 L 554.1 28.1 Z" fill="#2c374b"/>
			<path d="M 585.1 84.9 L 596.9 84.9 L 596.9 60 C 596.9 59 597 57.7 597.2 56.7 C 598.3 51.2 602.4 47.6 608.2 47.6 C 609.7 47.6 610.8 47.7 611.9 47.9 L 611.9 36.1 C 610.9 36 610.2 35.9 609 35.9 C 603.7 35.9 598 39.5 595.7 46.4 L 595.4 46.4 L 594.9 37.1 L 584.7 37.1 C 585 41.3 585.1 46 585.1 52.5 L 585.1 84.9 L 585.1 84.9 Z" fill="#2c374b"/>
			<path d="M 629.9 84.9 L 629.9 37.1 L 618.1 37.1 L 618.1 84.9 L 629.9 84.9 L 629.9 84.9 ZM 624 16.1 C 619.9 16.1 617.1 18.9 617.1 22.5 C 617.1 26 619.8 28.9 623.9 28.9 C 628.2 28.9 630.9 26 630.9 22.5 C 630.8 18.9 628.2 16.1 624 16.1 L 624 16.1 Z" fill="#2c374b"/>
			<path d="M 682.4 63.8 C 682.6 62.7 682.8 60.9 682.8 58.6 C 682.8 48.4 677.6 36.3 661.4 36.3 C 645.3 36.3 637.1 48.1 637.1 61.1 C 637.1 76.5 646.4 85.8 662.7 85.8 C 670 85.8 675.9 84.6 680.1 82.9 L 678.3 74.7 C 674.5 76 670.4 77 664.5 77 C 656.3 77 649.2 73 648.9 63.8 L 682.4 63.8 L 682.4 63.8 ZM 648.9 55.2 C 649.4 50.5 652.7 44.1 660.7 44.1 C 669.2 44.1 671.3 51 671.2 55.2 L 648.9 55.2 L 648.9 55.2 Z" fill="#2c374b"/>
			<path d="M 686.8 82.6 C 690.4 84.6 695.7 86 701.5 86 C 714.1 86 720.9 79.6 720.9 70.9 C 720.8 63.8 716.8 59.4 708 56.4 C 702.1 54.2 699.9 52.8 699.9 49.8 C 699.9 46.8 702.2 44.7 706.4 44.7 C 710.6 44.7 714.6 46.3 716.5 47.4 L 719 38.9 C 716.1 37.3 711.5 36 706.2 36 C 695.2 36 688.1 42.6 688.1 51 C 688.1 56.7 692 61.8 701.4 64.9 C 707.2 67 709.1 68.6 709.1 71.8 C 709.1 75 706.8 77.2 701.6 77.2 C 697.3 77.2 692 75.3 689.3 73.7 L 686.8 82.6 L 686.8 82.6 Z" fill="#2c374b"/>
		</g>
		<g id="lanet">
			<path d="M 106.1 85.9 L 114.9 85.9 L 114.9 15.1 L 106.1 15.1 L 106.1 85.9 L 106.1 85.9 Z" fill="#2c374b"/>
			<path d="M 161.9 56.1 C 161.9 47.1 158.2 37 142.9 37 C 136.6 37 130.5 38.8 126.5 41.3 L 128.5 47.1 C 131.9 44.9 136.8 43.7 141.5 43.7 C 151.8 43.6 152.9 50.5 152.9 54.1 L 152.9 55.1 C 133.6 55 123.1 61.1 123.1 72.9 C 123.1 79.9 128.1 87 138.1 87 C 145.2 87 150.6 83.5 153.4 79.6 L 153.7 79.6 L 154.4 85.9 L 162.6 85.9 C 162.1 82.6 161.9 78.4 161.9 74.2 L 161.9 56.1 L 161.9 56.1 ZM 153.1 69.4 C 153.1 70.2 153 71.2 152.7 72.2 C 151.2 76.3 147 80.3 140.4 80.3 C 135.8 80.3 131.9 77.7 131.9 71.9 C 131.9 62.4 143.2 60.7 153.1 60.9 L 153.1 69.4 L 153.1 69.4 Z" fill="#2c374b"/>
			<path d="M 173.1 85.9 L 181.9 85.9 L 181.9 56.8 C 181.9 55.3 182.1 53.8 182.5 52.7 C 184.2 47.8 188.8 43.7 194.6 43.7 C 203.1 43.7 206.1 50.2 206.1 58 L 206.1 85.9 L 214.9 85.9 L 214.9 57.1 C 214.9 40.7 204.5 37 197.6 37 C 189.4 37 183.6 41.2 181.2 45.5 L 181 45.5 L 180.5 38.1 L 172.7 38.1 C 173 42 173.1 46 173.1 51 L 173.1 85.9 L 173.1 85.9 Z" fill="#2c374b"/>
			<path d="M 265.6 62.9 C 265.8 62 265.9 60.8 265.9 59.1 C 265.9 50.5 261.7 37.2 245.4 37.2 C 231.1 37.2 223.1 48.1 223.1 62.2 C 223.1 77.2 231.4 87 246.6 87 C 254.4 87 259.9 85.3 263.1 84 L 261.4 77.7 C 258.1 79.2 254.2 80.3 247.8 80.3 C 238.7 80.3 231.1 75.2 230.9 62.9 L 265.6 62.9 L 265.6 62.9 ZM 231 57.1 C 231.7 51.1 235.6 43.1 244.7 43.1 C 254.8 43.1 257.2 51.6 257.1 57.1 L 231 57.1 L 231 57.1 Z" fill="#2c374b"/>
			<path d="M 276.1 29 L 276.1 38 L 268.6 38 L 268.6 44.7 L 276.1 44.7 L 276.1 70.9 C 276.1 76.9 277.1 81.1 279.6 83.6 C 281.7 85.7 285.1 87 289.2 87 C 292.6 87 295.3 86.4 297 85.9 L 296.6 79.7 C 295.3 80.1 293.9 80.3 291.5 80.3 C 286.6 80.3 284.9 76.9 284.9 70.9 L 284.9 44.7 L 297.5 44.7 L 297.5 38 L 284.9 38 L 284.9 26.4 L 276.1 29 L 276.1 29 Z" fill="#2c374b"/>
		</g>
		<g id="P">
			<path id="Ellipse" d="M 0 50 C 0 22.4 22.4 0 50 0 C 77.6 0 100 22.4 100 50 C 100 77.6 77.6 100 50 100 C 22.4 100 0 77.6 0 50 Z" fill="#3498db"/>
			<g>
				<path d="M 43.1 82.9 L 54.9 82.9 L 54.9 57.5 C 56.7 57.8 58.7 57.9 61 57.9 C 69.9 57.9 77.5 55.7 82.4 51.2 C 86 47.7 87.9 42.2 87.9 35.5 C 87.9 28.9 85.4 23.4 81.5 20.3 C 77.3 16.9 70.8 15.2 61.6 15.2 C 53.4 15.2 47.4 15.7 43.1 16.5 L 43.1 82.9 L 43.1 82.9 ZM 54.9 24.7 C 56.3 24.4 58.7 24 62.1 24 C 70.8 24 76.1 28.1 76.1 36 C 76.1 44.2 70.4 49.1 61 49.1 C 58.5 49.1 56.6 49 54.9 48.4 L 54.9 24.7 L 54.9 24.7 Z" fill="#ffffff"/>
			</g>
		</g>
	</g>
</svg>